<svg width="1194" height="630" viewBox="0 0 1194 630" fill="none" xmlns="http://www.w3.org/2000/svg">
<g clip-path="url(#clip0)">
<rect width="630" height="1194" transform="translate(1194) rotate(90)" fill="white"/>
<rect width="1194" height="670" fill="white"/>
<path d="M924 538L927 541L924 538ZM927 541L924 544L927 541ZM927 541H919H927ZM932 541C932 542.182 931.767 543.352 931.315 544.444C930.863 545.536 930.2 546.528 929.364 547.364C928.528 548.2 927.536 548.863 926.444 549.315C925.352 549.767 924.182 550 923 550C921.818 550 920.648 549.767 919.556 549.315C918.464 548.863 917.472 548.2 916.636 547.364C915.8 546.528 915.137 545.536 914.685 544.444C914.233 543.352 914 542.182 914 541C914 538.613 914.948 536.324 916.636 534.636C918.324 532.948 920.613 532 923 532C925.387 532 927.676 532.948 929.364 534.636C931.052 536.324 932 538.613 932 541Z" stroke="black" stroke-width="2" stroke-linecap="round" stroke-linejoin="round"/>
<rect x="93.5" y="60.5" width="462" height="628" rx="15.5" fill="#F5F5F4" stroke="#D6D3D1"/>
<path d="M605.944 137H611.56V114.032H622.288V108.56H595.216V114.032H605.944V137ZM624.868 137H630.196V127.352C630.196 124.292 631.816 122.312 634.408 122.312C636.712 122.312 638.08 123.896 638.08 126.632V137H643.48V126.38C643.48 120.62 641.212 117.704 636.532 117.704C633.544 117.704 631.456 118.964 630.196 120.944V108.56H624.868V137ZM657.073 137.576C661.645 137.576 665.173 134.984 665.749 130.916H660.421C660.205 132.212 658.981 133.22 657.109 133.22C654.337 133.22 652.969 131.636 652.717 129.224H665.857V127.496C665.857 121.52 662.041 117.704 657.073 117.704C651.313 117.704 647.281 121.808 647.281 127.604C647.281 133.436 651.313 137.576 657.073 137.576ZM652.753 125.948C653.077 123.788 654.337 122.312 656.857 122.312C659.125 122.312 660.385 123.86 660.493 125.948H652.753ZM678.896 137H684.944L687.464 131.06H701.432L703.952 137H710L697.58 108.56H691.316L678.896 137ZM689.768 125.624L694.484 114.752L699.128 125.624H689.768ZM719.575 137.576C722.527 137.576 724.579 136.46 725.875 134.552V137H731.239V108.56H725.875V120.728C724.579 118.82 722.527 117.704 719.575 117.704C714.859 117.704 711.547 121.808 711.547 127.568C711.547 133.436 714.859 137.576 719.575 137.576ZM721.411 132.968C718.747 132.968 716.875 130.736 716.875 127.604C716.875 124.508 718.747 122.312 721.411 122.312C724.039 122.312 725.911 124.508 725.911 127.604C725.911 130.736 724.039 132.968 721.411 132.968ZM742.702 137H748.498L756.85 118.28H751.27L745.618 130.808L739.966 118.28H734.35L742.702 137ZM767.428 137.576C772.001 137.576 775.529 134.984 776.104 130.916H770.776C770.561 132.212 769.337 133.22 767.464 133.22C764.692 133.22 763.324 131.636 763.072 129.224H776.213V127.496C776.213 121.52 772.397 117.704 767.428 117.704C761.668 117.704 757.636 121.808 757.636 127.604C757.636 133.436 761.668 137.576 767.428 137.576ZM763.108 125.948C763.432 123.788 764.692 122.312 767.212 122.312C769.481 122.312 770.741 123.86 770.848 125.948H763.108ZM780.259 137H785.587V127.424C785.587 124.328 787.207 122.312 789.799 122.312C792.103 122.312 793.471 123.968 793.471 126.704V137H798.871V126.416C798.871 120.692 796.603 117.704 791.923 117.704C788.935 117.704 786.847 118.964 785.587 120.98V118.28H780.259V137ZM815.064 136.964V132.248C811.068 132.608 810.924 132.32 810.924 129.224V123.14H815.82V118.28H810.924V113.24H805.596V118.28H801.6V123.14H805.596V131.96C805.488 137.252 808.332 137.468 815.064 136.964ZM838.381 118.28H833.053V127.856C833.053 130.952 831.433 132.968 828.841 132.968C826.537 132.968 825.169 131.312 825.169 128.576V118.28H819.769V128.864C819.769 134.588 822.037 137.576 826.717 137.576C829.705 137.576 831.793 136.316 833.053 134.3V137H838.381V118.28ZM843.118 137H848.374V126.884C848.374 123.5 851.938 123.212 855.718 123.212V118.064C852.082 118.064 849.598 119.288 848.374 121.808V118.28H843.118V137ZM866.815 137.576C871.387 137.576 874.915 134.984 875.491 130.916H870.163C869.947 132.212 868.723 133.22 866.851 133.22C864.079 133.22 862.711 131.636 862.459 129.224H875.599V127.496C875.599 121.52 871.783 117.704 866.815 117.704C861.055 117.704 857.023 121.808 857.023 127.604C857.023 133.436 861.055 137.576 866.815 137.576ZM862.495 125.948C862.819 123.788 864.079 122.312 866.599 122.312C868.867 122.312 870.127 123.86 870.235 125.948H862.495ZM887.998 137.576C893.434 137.576 896.71 135.272 896.71 131.564C896.71 123.428 884.758 127.28 884.758 123.644C884.758 122.312 885.91 121.412 887.89 121.412C890.05 121.412 891.346 122.528 891.454 124.364H896.71C896.386 120.224 893.218 117.704 888.214 117.704C882.706 117.704 879.394 120.08 879.394 123.86C879.394 131.78 891.382 127.928 891.382 131.744C891.382 132.86 890.194 133.868 888.142 133.868C885.91 133.868 884.29 132.824 884.218 131.024H878.926C879.034 135.128 882.454 137.576 887.998 137.576ZM920.784 137.576C926.652 137.576 930.792 133.436 930.792 127.604C930.792 121.808 926.652 117.704 920.784 117.704C914.916 117.704 910.812 121.808 910.812 127.604C910.812 133.436 914.916 137.576 920.784 137.576ZM920.784 132.968C918.084 132.968 916.176 130.736 916.176 127.604C916.176 124.508 918.084 122.312 920.784 122.312C923.52 122.312 925.428 124.508 925.428 127.604C925.428 130.736 923.52 132.968 920.784 132.968ZM936.484 137H941.848V123.14H946.96V118.28H941.848V117.056C941.884 114.14 942.892 113.42 945.376 113.42H946.6V108.56H943.864C939.004 108.488 936.412 111.692 936.484 116.516V118.28H932.092V123.14H936.484V137ZM972.595 137.576C979.975 137.576 984.331 133.832 984.331 128.504C984.331 116.444 967.015 123.14 967.015 116.696C967.015 114.464 968.887 113.168 972.307 113.168C975.655 113.168 977.599 114.716 977.815 117.344H984.007C984.007 111.584 979.219 107.984 972.415 107.984C965.539 107.984 961.219 111.368 961.219 116.768C961.219 128.792 978.499 122.204 978.499 128.576C978.499 130.916 976.447 132.392 972.739 132.392C968.959 132.392 966.799 130.52 966.691 127.352H960.391C960.391 133.796 965.395 137.576 972.595 137.576ZM988.735 137H994.063V127.352C994.063 124.292 995.683 122.312 998.275 122.312C1000.58 122.312 1001.95 123.896 1001.95 126.632V137H1007.35V126.38C1007.35 120.62 1005.08 117.704 1000.4 117.704C997.411 117.704 995.323 118.964 994.063 120.944V108.56H988.735V137ZM1020.94 137.576C1025.51 137.576 1029.04 134.984 1029.62 130.916H1024.29C1024.07 132.212 1022.85 133.22 1020.98 133.22C1018.2 133.22 1016.84 131.636 1016.58 129.224H1029.72V127.496C1029.72 121.52 1025.91 117.704 1020.94 117.704C1015.18 117.704 1011.15 121.808 1011.15 127.604C1011.15 133.436 1015.18 137.576 1020.94 137.576ZM1016.62 125.948C1016.94 123.788 1018.2 122.312 1020.72 122.312C1022.99 122.312 1024.25 123.86 1024.36 125.948H1016.62ZM1033.77 137H1039.03V126.884C1039.03 123.5 1042.59 123.212 1046.37 123.212V118.064C1042.73 118.064 1040.25 119.288 1039.03 121.808V118.28H1033.77V137ZM1049.34 137H1054.67V108.56H1049.34V137ZM1068.69 137.576C1074.55 137.576 1078.69 133.436 1078.69 127.604C1078.69 121.808 1074.55 117.704 1068.69 117.704C1062.82 117.704 1058.71 121.808 1058.71 127.604C1058.71 133.436 1062.82 137.576 1068.69 137.576ZM1068.69 132.968C1065.99 132.968 1064.08 130.736 1064.08 127.604C1064.08 124.508 1065.99 122.312 1068.69 122.312C1071.42 122.312 1073.33 124.508 1073.33 127.604C1073.33 130.736 1071.42 132.968 1068.69 132.968ZM1091.82 137.576C1096.42 137.576 1099.99 134.516 1100.53 130.196H1095.16C1095.02 131.816 1093.54 132.968 1091.6 132.968C1089.12 132.968 1087.39 130.736 1087.39 127.604C1087.39 124.508 1089.12 122.312 1091.6 122.312C1093.51 122.312 1094.95 123.5 1095.16 125.156H1100.53C1099.95 120.8 1096.42 117.704 1091.82 117.704C1086.06 117.704 1082.02 121.808 1082.02 127.604C1082.02 133.436 1086.06 137.576 1091.82 137.576ZM1104.36 137H1109.69V130.052L1111.13 128.864L1117.76 137H1124.34L1114.77 125.768L1123.62 118.28H1116.78L1109.69 124.364V108.56H1104.36V137ZM597.772 180H603.388V167.976H616.996V180H622.612V151.56H616.996V162.576H603.388V151.56H597.772V180ZM637.003 180.576C642.871 180.576 647.011 176.436 647.011 170.604C647.011 164.808 642.871 160.704 637.003 160.704C631.135 160.704 627.031 164.808 627.031 170.604C627.031 176.436 631.135 180.576 637.003 180.576ZM637.003 175.968C634.303 175.968 632.395 173.736 632.395 170.604C632.395 167.508 634.303 165.312 637.003 165.312C639.739 165.312 641.647 167.508 641.647 170.604C641.647 173.736 639.739 175.968 637.003 175.968ZM650.708 180H656.036V151.56H650.708V180ZM660.798 180H666.126V170.424C666.126 167.328 667.746 165.312 670.338 165.312C672.642 165.312 674.01 166.968 674.01 169.704V180H679.41V170.424C679.41 167.328 681.03 165.312 683.622 165.312C685.926 165.312 687.294 166.968 687.294 169.704V180H692.73V169.416C692.73 163.692 690.426 160.704 685.746 160.704C682.866 160.704 680.31 161.712 678.474 164.268C677.43 161.892 675.45 160.704 672.462 160.704C669.474 160.704 667.386 161.964 666.126 163.98V161.28H660.798V180ZM706.292 180.576C710.864 180.576 714.392 177.984 714.968 173.916H709.64C709.424 175.212 708.2 176.22 706.328 176.22C703.556 176.22 702.188 174.636 701.936 172.224H715.076V170.496C715.076 164.52 711.26 160.704 706.292 160.704C700.532 160.704 696.5 164.808 696.5 170.604C696.5 176.436 700.532 180.576 706.292 180.576ZM701.972 168.948C702.296 166.788 703.556 165.312 706.076 165.312C708.344 165.312 709.604 166.86 709.712 168.948H701.972ZM727.474 180.576C732.91 180.576 736.186 178.272 736.186 174.564C736.186 166.428 724.234 170.28 724.234 166.644C724.234 165.312 725.386 164.412 727.366 164.412C729.526 164.412 730.822 165.528 730.93 167.364H736.186C735.862 163.224 732.694 160.704 727.69 160.704C722.182 160.704 718.87 163.08 718.87 166.86C718.87 174.78 730.858 170.928 730.858 174.744C730.858 175.86 729.67 176.868 727.618 176.868C725.386 176.868 723.766 175.824 723.694 174.024H718.402C718.51 178.128 721.93 180.576 727.474 180.576Z" fill="black"/>
<path d="M599.608 219H601.64L604.696 208.776L607.928 219H609.96L614.104 206.36H612.232L608.952 217.016L605.704 206.36H603.64L600.616 216.984L597.336 206.36H595.464L599.608 219ZM615.106 219H616.658V214.312C616.658 212.808 618.018 212.104 619.986 212.104V210.584C618.338 210.584 617.202 211.144 616.658 212.264V210.68H615.106V219ZM622.109 209.416C622.733 209.416 623.261 208.92 623.261 208.264C623.261 207.624 622.765 207.112 622.109 207.112C621.453 207.112 620.941 207.624 620.941 208.264C620.941 208.92 621.453 209.416 622.109 209.416ZM621.309 219H622.925V210.68H621.309V219ZM630.014 218.984V217.56C628.11 217.704 628.046 217.528 628.046 216.152V212.12H630.43V210.68H628.046V208.44H626.414V210.68H624.638V212.12H626.414V216.76C626.366 219.112 627.63 219.208 630.014 218.984ZM636.842 218.984V217.56C634.938 217.704 634.874 217.528 634.874 216.152V212.12H637.258V210.68H634.874V208.44H633.242V210.68H631.466V212.12H633.242V216.76C633.194 219.112 634.458 219.208 636.842 218.984ZM642.838 219.256C644.806 219.256 646.246 218.056 646.502 216.584H644.87C644.71 217.256 643.958 217.912 642.838 217.912C641.302 217.912 640.406 216.872 640.294 215.352H646.582V214.712C646.582 211.944 644.87 210.424 642.838 210.424C640.374 210.424 638.614 212.248 638.614 214.824C638.614 217.416 640.374 219.256 642.838 219.256ZM640.294 214.136C640.502 212.744 641.366 211.816 642.79 211.816C644.022 211.816 644.886 212.776 644.95 214.136H640.294ZM648.653 219H650.285V214.888C650.285 213.112 651.261 211.816 652.733 211.816C653.949 211.816 654.621 212.696 654.621 214.088V219H656.269V214.04C656.269 211.656 655.229 210.424 653.213 210.424C651.837 210.424 650.877 211.096 650.285 212.104V210.68H648.653V219ZM667.677 219.256C669.853 219.256 671.389 217.416 671.389 214.808C671.389 212.248 669.853 210.424 667.677 210.424C666.461 210.424 665.501 211.016 664.925 211.976V206.36H663.293V219H664.925V217.704C665.501 218.68 666.461 219.272 667.677 219.256ZM667.325 217.864C665.885 217.864 664.861 216.6 664.861 214.824C664.861 213.064 665.885 211.816 667.325 211.816C668.765 211.816 669.773 213.064 669.773 214.824C669.773 216.6 668.765 217.864 667.325 217.864ZM672.558 222.2H673.358C675.406 222.2 676.686 221.592 677.47 219.624L680.878 210.68H679.15L676.75 217.24L673.662 210.68H671.918L675.902 219.24C675.278 220.392 674.734 220.792 673.566 220.792H672.558V222.2ZM692.492 219.256C695.772 219.256 697.708 217.592 697.708 215.224C697.708 209.864 690.012 212.84 690.012 209.976C690.012 208.984 690.844 208.408 692.364 208.408C693.852 208.408 694.716 209.096 694.812 210.264H697.564C697.564 207.704 695.436 206.104 692.412 206.104C689.356 206.104 687.436 207.608 687.436 210.008C687.436 215.352 695.116 212.424 695.116 215.256C695.116 216.296 694.204 216.952 692.556 216.952C690.876 216.952 689.916 216.12 689.868 214.712H687.068C687.068 217.576 689.292 219.256 692.492 219.256ZM700.849 209.656C701.713 209.656 702.353 209.016 702.353 208.152C702.353 207.288 701.713 206.68 700.849 206.68C699.969 206.68 699.329 207.288 699.329 208.152C699.329 209.016 699.969 209.656 700.849 209.656ZM699.649 219H702.033V210.68H699.649V219ZM704.134 219H706.47V214.504C706.47 213 708.054 212.872 709.734 212.872V210.584C708.118 210.584 707.014 211.128 706.47 212.248V210.68H704.134V219ZM715.053 219H717.741L718.861 216.36H725.069L726.189 219H728.877L723.357 206.36H720.573L715.053 219ZM719.885 213.944L721.981 209.112L724.045 213.944H719.885ZM730.197 219H732.533V214.504C732.533 213 734.117 212.872 735.797 212.872V210.584C734.181 210.584 733.077 211.128 732.533 212.248V210.68H730.197V219ZM742.463 218.984V216.888C740.687 217.048 740.623 216.92 740.623 215.544V212.84H742.799V210.68H740.623V208.44H738.255V210.68H736.479V212.84H738.255V216.76C738.207 219.112 739.471 219.208 742.463 218.984ZM744.494 219H746.862V214.712C746.862 213.352 747.582 212.472 748.734 212.472C749.758 212.472 750.366 213.176 750.366 214.392V219H752.766V214.28C752.766 211.72 751.758 210.424 749.678 210.424C748.35 210.424 747.422 210.984 746.862 211.864V206.36H744.494V219ZM762.951 210.68H760.583V214.936C760.583 216.312 759.863 217.208 758.711 217.208C757.687 217.208 757.079 216.472 757.079 215.256V210.68H754.679V215.384C754.679 217.928 755.687 219.256 757.767 219.256C759.095 219.256 760.023 218.696 760.583 217.8V219H762.951V210.68ZM765.056 219H767.392V214.504C767.392 213 768.976 212.872 770.656 212.872V210.584C769.04 210.584 767.936 211.128 767.392 212.248V210.68H765.056V219ZM782.919 219.256C785.783 219.256 788.247 217.368 788.743 214.216H786.167C785.911 215.832 784.599 216.84 782.791 216.84C780.487 216.84 779.015 215.176 779.015 212.536C779.015 210.056 780.503 208.504 782.855 208.52C784.503 208.536 785.751 209.464 786.023 210.92H788.599C788.215 207.912 785.831 206.104 782.887 206.104C779.127 206.104 776.455 208.808 776.455 212.616C776.455 216.504 779.127 219.256 782.919 219.256ZM794.652 219.256C797.26 219.256 799.1 217.416 799.1 214.824C799.1 212.248 797.26 210.424 794.652 210.424C792.044 210.424 790.22 212.248 790.22 214.824C790.22 217.416 792.044 219.256 794.652 219.256ZM794.652 217.208C793.452 217.208 792.604 216.216 792.604 214.824C792.604 213.448 793.452 212.472 794.652 212.472C795.868 212.472 796.716 213.448 796.716 214.824C796.716 216.216 795.868 217.208 794.652 217.208ZM800.744 219H803.112V214.744C803.112 213.368 803.832 212.472 804.984 212.472C806.008 212.472 806.616 213.208 806.616 214.424V219H809.016V214.296C809.016 211.752 808.008 210.424 805.928 210.424C804.6 210.424 803.672 210.984 803.112 211.88V210.68H800.744V219ZM813.873 219.256C815.297 219.256 816.193 218.616 816.609 217.576C816.817 218.712 817.729 219.352 819.569 218.936V217.24C818.913 217.304 818.785 217.064 818.785 216.376V213.56C818.785 211.592 817.409 210.424 814.977 210.424C812.577 210.424 811.169 211.608 811.169 213.608H813.505C813.505 212.888 814.033 212.472 814.945 212.472C815.937 212.472 816.433 212.872 816.417 213.56V213.816L814.513 214.04C812.161 214.312 810.833 215.272 810.833 216.776C810.833 218.04 811.729 219.256 813.873 219.256ZM814.353 217.496C813.617 217.496 813.217 217.16 813.217 216.648C813.217 216.04 814.001 215.8 815.505 215.608L816.321 215.528C816.177 216.648 815.489 217.496 814.353 217.496ZM820.994 219H823.362V214.744C823.362 213.368 824.082 212.472 825.234 212.472C826.258 212.472 826.866 213.208 826.866 214.424V219H829.266V214.296C829.266 211.752 828.258 210.424 826.178 210.424C824.85 210.424 823.922 210.984 823.362 211.88V210.68H820.994V219ZM836.248 219H841.704C845.592 219 848.168 216.6 848.168 212.664C848.168 208.68 845.656 206.36 841.704 206.36H836.248V219ZM838.744 216.76V208.6H841.704C844.152 208.6 845.592 210.104 845.592 212.648C845.592 215.24 844.152 216.76 841.704 216.76H838.744ZM854.074 219.256C856.682 219.256 858.522 217.416 858.522 214.824C858.522 212.248 856.682 210.424 854.074 210.424C851.466 210.424 849.642 212.248 849.642 214.824C849.642 217.416 851.466 219.256 854.074 219.256ZM854.074 217.208C852.874 217.208 852.026 216.216 852.026 214.824C852.026 213.448 852.874 212.472 854.074 212.472C855.29 212.472 856.138 213.448 856.138 214.824C856.138 216.216 855.29 217.208 854.074 217.208ZM859.763 222.2H860.787C862.835 222.2 864.243 221.64 865.091 219.608L868.483 210.68H866.003L863.923 216.232L861.427 210.68H858.931L862.691 219.128C862.163 219.88 861.619 220.12 860.579 220.104H859.763V222.2ZM869.681 219H872.049V206.36H869.681V219ZM878.197 219.256C880.229 219.256 881.797 218.104 882.053 216.296H879.685C879.589 216.872 879.045 217.32 878.213 217.32C876.981 217.32 876.373 216.616 876.261 215.544H882.101V214.776C882.101 212.12 880.405 210.424 878.197 210.424C875.637 210.424 873.845 212.248 873.845 214.824C873.845 217.416 875.637 219.256 878.197 219.256ZM876.277 214.088C876.421 213.128 876.981 212.472 878.101 212.472C879.109 212.472 879.669 213.16 879.717 214.088H876.277ZM883.564 220.648H884.652L886.188 217.16H884.412L883.564 220.648ZM893.189 219H894.853V213.816H898.741C901.509 213.816 902.949 212.344 902.949 210.04C902.949 207.736 901.509 206.36 898.741 206.36H893.189V219ZM894.853 212.216V207.944H898.373C900.293 207.944 901.205 208.744 901.205 210.088C901.205 211.416 900.325 212.216 898.453 212.216H894.853ZM912.344 210.68H910.728V214.792C910.728 216.568 909.736 217.864 908.264 217.864C907.064 217.864 906.376 216.984 906.376 215.592V210.68H904.744V215.64C904.744 218.024 905.768 219.256 907.784 219.256C909.16 219.256 910.136 218.584 910.728 217.576V219H912.344V210.68ZM919.115 219.256C921.291 219.256 922.827 217.416 922.827 214.808C922.827 212.248 921.291 210.424 919.115 210.424C917.899 210.424 916.939 211.016 916.363 211.976V206.36H914.731V219H916.363V217.704C916.939 218.68 917.899 219.272 919.115 219.256ZM918.763 217.864C917.323 217.864 916.299 216.6 916.299 214.824C916.299 213.064 917.323 211.816 918.763 211.816C920.203 211.816 921.211 213.064 921.211 214.824C921.211 216.6 920.203 217.864 918.763 217.864ZM924.731 219H926.363V206.36H924.731V219ZM929.531 209.416C930.155 209.416 930.683 208.92 930.683 208.264C930.683 207.624 930.187 207.112 929.531 207.112C928.875 207.112 928.363 207.624 928.363 208.264C928.363 208.92 928.875 209.416 929.531 209.416ZM928.731 219H930.347V210.68H928.731V219ZM936.108 219.256C938.316 219.256 939.676 218.248 939.676 216.712C939.676 213.16 934.236 215 934.236 212.968C934.236 212.216 934.908 211.656 936.044 211.656C937.292 211.656 938.06 212.28 938.108 213.32H939.66C939.532 211.544 938.204 210.424 936.188 210.424C933.98 210.424 932.62 211.496 932.62 213.032C932.62 216.488 938.044 214.616 938.044 216.728C938.044 217.464 937.356 218.024 936.172 218.024C934.844 218.024 933.996 217.432 933.932 216.408H932.38C932.428 218.168 933.852 219.256 936.108 219.256ZM941.731 219H943.363V214.84C943.363 213.048 944.339 211.816 945.811 211.816C947.027 211.816 947.699 212.648 947.699 214.04V219H949.347V213.976C949.347 211.608 948.307 210.424 946.291 210.424C944.915 210.424 943.955 211.064 943.363 212.056V206.36H941.731V219ZM955.479 219.256C957.447 219.256 958.887 218.056 959.143 216.584H957.511C957.351 217.256 956.599 217.912 955.479 217.912C953.943 217.912 953.047 216.872 952.935 215.352H959.223V214.712C959.223 211.944 957.511 210.424 955.479 210.424C953.015 210.424 951.255 212.248 951.255 214.824C951.255 217.416 953.015 219.256 955.479 219.256ZM952.935 214.136C953.143 212.744 954.007 211.816 955.431 211.816C956.663 211.816 957.527 212.776 957.591 214.136H952.935ZM964.701 219.256C965.917 219.272 966.877 218.68 967.453 217.704V219H969.085V206.36H967.453V211.976C966.877 211.016 965.917 210.424 964.701 210.424C962.525 210.424 960.989 212.248 960.989 214.808C960.989 217.416 962.525 219.256 964.701 219.256ZM965.053 217.864C963.613 217.864 962.605 216.6 962.605 214.824C962.605 213.064 963.613 211.816 965.053 211.816C966.493 211.816 967.517 213.064 967.517 214.824C967.517 216.6 966.493 217.864 965.053 217.864ZM980.151 219.256C982.631 219.256 984.391 217.416 984.391 214.824C984.391 212.248 982.631 210.424 980.151 210.424C977.687 210.424 975.927 212.248 975.927 214.824C975.927 217.416 977.687 219.256 980.151 219.256ZM980.151 217.864C978.647 217.864 977.575 216.6 977.575 214.824C977.575 213.064 978.647 211.816 980.151 211.816C981.671 211.816 982.743 213.064 982.743 214.824C982.743 216.6 981.671 217.864 980.151 217.864ZM986.278 219H987.91V214.888C987.91 213.112 988.886 211.816 990.358 211.816C991.574 211.816 992.246 212.696 992.246 214.088V219H993.894V214.04C993.894 211.656 992.854 210.424 990.838 210.424C989.462 210.424 988.502 211.096 987.91 212.104V210.68H986.278V219ZM1004.57 219.208C1007.46 219.208 1008.95 217.624 1008.95 214.568V206.36H1007.29V214.472C1007.29 216.552 1006.37 217.624 1004.57 217.624C1002.79 217.624 1001.88 216.632 1001.88 214.68H1000.21C1000.21 217.656 1001.7 219.208 1004.57 219.208ZM1018.97 210.68H1017.35V214.792C1017.35 216.568 1016.36 217.864 1014.89 217.864C1013.69 217.864 1013 216.984 1013 215.592V210.68H1011.37V215.64C1011.37 218.024 1012.39 219.256 1014.41 219.256C1015.78 219.256 1016.76 218.584 1017.35 217.576V219H1018.97V210.68ZM1021.36 219H1022.99V206.36H1021.36V219ZM1024.84 222.2H1025.64C1027.69 222.2 1028.97 221.592 1029.75 219.624L1033.16 210.68H1031.43L1029.03 217.24L1025.94 210.68H1024.2L1028.18 219.24C1027.56 220.392 1027.02 220.792 1025.85 220.792H1024.84V222.2ZM1044.68 219.256C1047.93 219.256 1049.85 216.792 1049.85 212.616C1049.85 208.52 1047.93 206.104 1044.68 206.104C1041.37 206.104 1039.4 208.52 1039.4 212.616C1039.4 216.792 1041.37 219.256 1044.68 219.256ZM1044.68 217.672C1042.45 217.672 1041.16 215.768 1041.16 212.536C1041.16 209.496 1042.45 207.688 1044.68 207.688C1046.82 207.688 1048.1 209.496 1048.1 212.536C1048.1 215.768 1046.82 217.672 1044.68 217.672ZM1056.25 219.256C1058.96 219.256 1060.78 217.56 1060.78 215.144C1060.78 212.776 1059.04 211.448 1056.84 211.432L1060.64 207.432V206.36H1051.95V207.944H1057.98L1054.33 211.96L1055.21 212.888C1055.5 212.776 1055.96 212.696 1056.35 212.696C1058.03 212.696 1059.12 213.656 1059.12 215.096C1059.12 216.664 1058 217.672 1056.24 217.672C1054.51 217.672 1053.37 216.52 1053.31 214.792H1051.61C1051.61 217.4 1053.5 219.256 1056.25 219.256ZM1062.31 220.648H1063.4L1064.94 217.16H1063.16L1062.31 220.648ZM1074.77 219H1076.44V206.36H1075.3L1071.03 208.728V210.568L1074.77 208.504V219ZM1083.43 219.256C1086.16 219.256 1087.99 217.752 1087.99 215.496C1087.99 213.96 1086.95 212.648 1085.6 212.216C1086.61 211.8 1087.48 210.632 1087.48 209.352C1087.48 207.4 1085.84 206.104 1083.43 206.104C1081 206.104 1079.36 207.4 1079.36 209.352C1079.36 210.632 1080.23 211.8 1081.24 212.216C1079.89 212.648 1078.85 213.96 1078.85 215.496C1078.85 217.752 1080.68 219.256 1083.43 219.256ZM1083.43 211.592C1082.05 211.592 1081.11 210.744 1081.11 209.528C1081.11 208.408 1082.05 207.64 1083.43 207.64C1084.79 207.64 1085.73 208.408 1085.73 209.528C1085.73 210.744 1084.79 211.592 1083.43 211.592ZM1083.43 217.72C1081.76 217.72 1080.66 216.792 1080.66 215.448C1080.66 214.04 1081.76 213.08 1083.43 213.08C1085.09 213.08 1086.18 214.04 1086.18 215.448C1086.18 216.792 1085.09 217.72 1083.43 217.72ZM1094.58 219.256C1097.32 219.256 1099.14 217.752 1099.14 215.496C1099.14 213.96 1098.1 212.648 1096.76 212.216C1097.77 211.8 1098.63 210.632 1098.63 209.352C1098.63 207.4 1097 206.104 1094.58 206.104C1092.15 206.104 1090.52 207.4 1090.52 209.352C1090.52 210.632 1091.38 211.8 1092.39 212.216C1091.05 212.648 1090.01 213.96 1090.01 215.496C1090.01 217.752 1091.83 219.256 1094.58 219.256ZM1094.58 211.592C1093.21 211.592 1092.26 210.744 1092.26 209.528C1092.26 208.408 1093.21 207.64 1094.58 207.64C1095.94 207.64 1096.89 208.408 1096.89 209.528C1096.89 210.744 1095.94 211.592 1094.58 211.592ZM1094.58 217.72C1092.92 217.72 1091.82 216.792 1091.82 215.448C1091.82 214.04 1092.92 213.08 1094.58 213.08C1096.25 213.08 1097.34 214.04 1097.34 215.448C1097.34 216.792 1096.25 217.72 1094.58 217.72ZM1102.22 219H1104.22L1109.4 207.304V206.36H1099.95V207.944H1107.32L1102.22 219Z" fill="black"/>
<rect x="595.5" y="262.5" width="359" height="63" rx="7.5" fill="white" stroke="#D6D3D1"/>
<path d="M650.232 290H652.728V285.424H656.088C658.856 285.424 660.408 283.744 660.408 281.28C660.408 278.816 658.856 277.36 656.088 277.36H650.232V290ZM652.728 283.024V279.776H655.48C657.016 279.776 657.832 280.384 657.832 281.392C657.832 282.416 657.048 283.024 655.56 283.024H652.728ZM663.982 290.256C665.406 290.256 666.302 289.616 666.718 288.576C666.926 289.712 667.838 290.352 669.678 289.936V288.24C669.022 288.304 668.894 288.064 668.894 287.376V284.56C668.894 282.592 667.518 281.424 665.086 281.424C662.686 281.424 661.278 282.608 661.278 284.608H663.614C663.614 283.888 664.142 283.472 665.054 283.472C666.046 283.472 666.542 283.872 666.526 284.56V284.816L664.622 285.04C662.27 285.312 660.942 286.272 660.942 287.776C660.942 289.04 661.838 290.256 663.982 290.256ZM664.462 288.496C663.726 288.496 663.326 288.16 663.326 287.648C663.326 287.04 664.11 286.8 665.614 286.608L666.43 286.528C666.286 287.648 665.598 288.496 664.462 288.496ZM671.103 293.2H673.471V288.912C674.047 289.76 674.959 290.256 676.271 290.256C678.367 290.256 679.855 288.432 679.855 285.872C679.855 283.264 678.367 281.424 676.271 281.424C674.959 281.424 674.047 281.92 673.471 282.768V281.68H671.103V293.2ZM675.455 288.208C674.287 288.208 673.455 287.232 673.455 285.856C673.455 284.464 674.287 283.472 675.455 283.472C676.639 283.472 677.471 284.464 677.471 285.856C677.471 287.232 676.639 288.208 675.455 288.208ZM685.666 290.256C687.698 290.256 689.266 289.104 689.522 287.296H687.154C687.058 287.872 686.514 288.32 685.682 288.32C684.45 288.32 683.842 287.616 683.73 286.544H689.57V285.776C689.57 283.12 687.874 281.424 685.666 281.424C683.106 281.424 681.314 283.248 681.314 285.824C681.314 288.416 683.106 290.256 685.666 290.256ZM683.746 285.088C683.89 284.128 684.45 283.472 685.57 283.472C686.578 283.472 687.138 284.16 687.186 285.088H683.746ZM691.369 290H693.705V285.504C693.705 284 695.289 283.872 696.969 283.872V281.584C695.353 281.584 694.249 282.128 693.705 283.248V281.68H691.369V290ZM703.458 290.256C705.554 290.256 707.042 288.416 707.042 285.808C707.042 283.248 705.554 281.424 703.458 281.424C702.146 281.424 701.234 281.92 700.658 282.768V277.36H698.29V290H700.658V288.912C701.234 289.76 702.146 290.256 703.458 290.256ZM702.642 288.208C701.474 288.208 700.642 287.216 700.642 285.824C700.642 284.448 701.474 283.472 702.642 283.472C703.826 283.472 704.658 284.448 704.658 285.824C704.658 287.216 703.826 288.208 702.642 288.208ZM711.404 290.256C712.828 290.256 713.724 289.616 714.14 288.576C714.348 289.712 715.26 290.352 717.1 289.936V288.24C716.444 288.304 716.316 288.064 716.316 287.376V284.56C716.316 282.592 714.94 281.424 712.508 281.424C710.108 281.424 708.7 282.608 708.7 284.608H711.036C711.036 283.888 711.564 283.472 712.476 283.472C713.468 283.472 713.964 283.872 713.948 284.56V284.816L712.044 285.04C709.692 285.312 708.364 286.272 708.364 287.776C708.364 289.04 709.26 290.256 711.404 290.256ZM711.884 288.496C711.148 288.496 710.748 288.16 710.748 287.648C710.748 287.04 711.532 286.8 713.036 286.608L713.852 286.528C713.708 287.648 713.02 288.496 711.884 288.496ZM722.604 290.256C724.652 290.256 726.236 288.896 726.476 286.976H724.092C724.028 287.696 723.372 288.208 722.508 288.208C721.404 288.208 720.636 287.216 720.636 285.824C720.636 284.448 721.404 283.472 722.508 283.472C723.356 283.472 723.996 284 724.092 284.736H726.476C726.22 282.8 724.652 281.424 722.604 281.424C720.044 281.424 718.252 283.248 718.252 285.824C718.252 288.416 720.044 290.256 722.604 290.256ZM728.181 290H730.549V286.912L731.189 286.384L734.133 290H737.061L732.805 285.008L736.741 281.68H733.701L730.549 284.384V277.36H728.181V290Z" fill="black"/>
<path d="M650.232 310H651.688V305.464H655.09C657.512 305.464 658.772 304.176 658.772 302.16C658.772 300.144 657.512 298.94 655.09 298.94H650.232V310ZM651.688 304.064V300.326H654.768C656.448 300.326 657.246 301.026 657.246 302.202C657.246 303.364 656.476 304.064 654.838 304.064H651.688ZM660.181 310H661.539V305.898C661.539 304.582 662.729 303.966 664.451 303.966V302.636C663.009 302.636 662.015 303.126 661.539 304.106V302.72H660.181V310ZM666.308 301.614C666.854 301.614 667.316 301.18 667.316 300.606C667.316 300.046 666.882 299.598 666.308 299.598C665.734 299.598 665.286 300.046 665.286 300.606C665.286 301.18 665.734 301.614 666.308 301.614ZM665.608 310H667.022V302.72H665.608V310ZM669.081 310H670.509V306.402C670.509 304.848 671.363 303.714 672.651 303.714C673.715 303.714 674.303 304.484 674.303 305.702V310H675.745V305.66C675.745 303.574 674.835 302.496 673.071 302.496C671.867 302.496 671.027 303.084 670.509 303.966V302.72H669.081V310ZM681.701 309.986V308.74C680.035 308.866 679.979 308.712 679.979 307.508V303.98H682.066V302.72H679.979V300.76H678.551V302.72H676.997V303.98H678.551V308.04C678.509 310.098 679.615 310.182 681.701 309.986ZM691.419 310.224C693.589 310.224 695.129 308.614 695.129 306.346C695.129 304.092 693.589 302.496 691.419 302.496C689.263 302.496 687.723 304.092 687.723 306.346C687.723 308.614 689.263 310.224 691.419 310.224ZM691.419 309.006C690.103 309.006 689.165 307.9 689.165 306.346C689.165 304.806 690.103 303.714 691.419 303.714C692.749 303.714 693.687 304.806 693.687 306.346C693.687 307.9 692.749 309.006 691.419 309.006ZM696.78 310H698.208V306.402C698.208 304.848 699.062 303.714 700.35 303.714C701.414 303.714 702.002 304.484 702.002 305.702V310H703.444V305.66C703.444 303.574 702.534 302.496 700.77 302.496C699.566 302.496 698.726 303.084 698.208 303.966V302.72H696.78V310ZM709.787 310H714.197C717.599 310 719.853 307.9 719.853 304.456C719.853 300.97 717.655 298.94 714.197 298.94H709.787V310ZM711.243 308.67V300.27H714.197C716.787 300.27 718.327 301.824 718.327 304.442C718.327 307.102 716.787 308.67 714.197 308.67H711.243ZM725.065 310.224C726.787 310.224 728.047 309.174 728.271 307.886H726.843C726.703 308.474 726.045 309.048 725.065 309.048C723.721 309.048 722.937 308.138 722.839 306.808H728.341V306.248C728.341 303.826 726.843 302.496 725.065 302.496C722.909 302.496 721.369 304.092 721.369 306.346C721.369 308.614 722.909 310.224 725.065 310.224ZM722.839 305.744C723.021 304.526 723.777 303.714 725.023 303.714C726.101 303.714 726.857 304.554 726.913 305.744H722.839ZM730.153 310H731.581V306.402C731.581 304.848 732.435 303.714 733.723 303.714C734.787 303.714 735.375 304.484 735.375 305.702V310H736.817V306.402C736.817 304.848 737.671 303.714 738.959 303.714C740.023 303.714 740.611 304.484 740.611 305.702V310H742.039V305.66C742.039 303.574 741.143 302.496 739.379 302.496C738.161 302.496 737.195 303.07 736.579 304.092C736.215 303.042 735.389 302.496 734.143 302.496C732.939 302.496 732.099 303.084 731.581 303.966V302.72H730.153V310ZM746.369 310.224C747.685 310.224 748.581 309.636 748.987 308.628C749.071 309.776 749.659 310.322 750.989 309.944L751.017 308.936C750.443 308.992 750.331 308.782 750.331 308.18V305.142C750.331 303.476 749.267 302.496 747.265 302.496C745.291 302.496 744.157 303.49 744.157 305.184H745.501C745.501 304.274 746.131 303.714 747.237 303.714C748.399 303.714 748.917 304.246 748.903 305.142V305.562L747.153 305.758C745.011 305.996 743.905 306.78 743.905 308.068C743.905 309.174 744.703 310.224 746.369 310.224ZM746.677 309.104C745.669 309.104 745.319 308.544 745.319 308.04C745.319 307.354 746.075 306.99 747.559 306.822L748.875 306.682C748.833 308.04 747.895 309.104 746.677 309.104ZM752.438 310H753.866V306.402C753.866 304.848 754.72 303.714 756.008 303.714C757.072 303.714 757.66 304.484 757.66 305.702V310H759.102V305.66C759.102 303.574 758.192 302.496 756.428 302.496C755.224 302.496 754.384 303.084 753.866 303.966V302.72H752.438V310ZM764.034 310.224C765.098 310.238 765.938 309.72 766.442 308.866V310H767.87V298.94H766.442V303.854C765.938 303.014 765.098 302.496 764.034 302.496C762.13 302.496 760.786 304.092 760.786 306.332C760.786 308.614 762.13 310.224 764.034 310.224ZM764.342 309.006C763.082 309.006 762.2 307.9 762.2 306.346C762.2 304.806 763.082 303.714 764.342 303.714C765.602 303.714 766.498 304.806 766.498 306.346C766.498 307.9 765.602 309.006 764.342 309.006ZM769.532 311.442H770.484L771.828 308.39H770.274L769.532 311.442ZM781.175 310.224C783.345 310.224 784.885 308.614 784.885 306.346C784.885 304.092 783.345 302.496 781.175 302.496C779.019 302.496 777.479 304.092 777.479 306.346C777.479 308.614 779.019 310.224 781.175 310.224ZM781.175 309.006C779.859 309.006 778.921 307.9 778.921 306.346C778.921 304.806 779.859 303.714 781.175 303.714C782.505 303.714 783.443 304.806 783.443 306.346C783.443 307.9 782.505 309.006 781.175 309.006ZM786.536 310H787.964V306.402C787.964 304.848 788.818 303.714 790.106 303.714C791.17 303.714 791.758 304.484 791.758 305.702V310H793.2V305.66C793.2 303.574 792.29 302.496 790.526 302.496C789.322 302.496 788.482 303.084 787.964 303.966V302.72H786.536V310ZM803.337 310.224C805.549 310.224 807.187 308.656 807.187 306.416C807.187 304.316 805.703 302.916 803.491 302.916C802.287 302.916 801.167 303.504 800.663 304.372C800.831 301.656 801.811 300.102 803.365 300.102C804.583 300.102 805.423 300.802 805.619 301.992L807.145 301.978C806.907 299.92 805.521 298.716 803.421 298.716C800.873 298.716 799.235 300.886 799.235 304.652C799.235 308.152 800.579 310.224 803.337 310.224ZM803.351 308.838C801.993 308.838 801.027 307.886 801.027 306.542C801.027 305.184 802.007 304.232 803.379 304.232C804.723 304.232 805.675 305.184 805.675 306.528C805.675 307.872 804.709 308.838 803.351 308.838ZM808.63 310H810.38L812.606 307.354L814.832 310H816.582L813.53 306.388L816.638 302.72H814.902L812.648 305.394L810.394 302.72H808.658L811.724 306.36L808.63 310ZM819.475 310H821.225L825.761 299.766V298.94H817.487V300.326H823.941L819.475 310Z" fill="black"/>
<path d="M871.554 300.28C870.774 300.256 870.078 300.184 869.466 300.064C868.854 299.932 868.296 299.752 867.792 299.524V297.202C868.284 297.442 868.878 297.664 869.574 297.868C870.27 298.06 870.93 298.174 871.554 298.21V295.492C870.63 295.132 869.886 294.784 869.322 294.448C868.77 294.1 868.374 293.716 868.134 293.296C867.894 292.876 867.774 292.372 867.774 291.784C867.774 290.884 868.122 290.17 868.818 289.642C869.526 289.102 870.438 288.784 871.554 288.688V287.338H872.76V288.652C874.092 288.7 875.304 288.97 876.396 289.462L875.568 291.514C875.088 291.31 874.602 291.154 874.11 291.046C873.63 290.938 873.18 290.866 872.76 290.83V293.422C873.408 293.662 874.026 293.926 874.614 294.214C875.202 294.49 875.676 294.844 876.036 295.276C876.408 295.708 876.594 296.278 876.594 296.986C876.594 297.862 876.276 298.594 875.64 299.182C875.004 299.77 874.044 300.124 872.76 300.244V302.044H871.554V300.28ZM871.554 290.866C870.798 290.974 870.42 291.28 870.42 291.784C870.42 292.036 870.51 292.246 870.69 292.414C870.87 292.582 871.158 292.756 871.554 292.936V290.866ZM872.76 298.156C873.552 298.012 873.948 297.664 873.948 297.112C873.948 296.872 873.846 296.668 873.642 296.5C873.45 296.32 873.156 296.14 872.76 295.96V298.156ZM885.401 301H888.065V297.508H889.973V294.79H888.065V286.78H884.267L877.949 294.988V297.508H885.401V301ZM881.585 294.79L885.401 289.696V294.79H881.585ZM896.874 301.288C900.222 301.288 902.454 299.452 902.454 296.104C902.454 293.386 900.582 291.478 897.648 291.478C896.514 291.478 895.614 291.766 894.948 292.252L895.272 289.498H901.77V286.78H892.896L892.194 294.196L893.886 295.096C894.624 294.466 895.686 294.052 896.694 294.052C898.458 294.052 899.556 294.916 899.556 296.284C899.556 297.67 898.53 298.57 896.856 298.57C895.47 298.57 894.498 297.778 894.336 296.554H891.438C891.564 299.47 893.706 301.288 896.874 301.288ZM905.962 301.252C906.934 301.252 907.654 300.55 907.654 299.578C907.654 298.606 906.934 297.904 905.962 297.904C904.972 297.904 904.234 298.606 904.234 299.578C904.234 300.55 904.972 301.252 905.962 301.252ZM915.79 301.288C919.696 301.288 922 298.516 922 293.818C922 289.21 919.696 286.492 915.79 286.492C911.83 286.492 909.49 289.21 909.49 293.818C909.49 298.516 911.83 301.288 915.79 301.288ZM915.79 298.57C913.648 298.57 912.37 296.77 912.37 293.728C912.37 290.884 913.648 289.21 915.79 289.21C917.878 289.21 919.102 290.884 919.102 293.728C919.102 296.77 917.878 298.57 915.79 298.57ZM930.134 301.288C934.04 301.288 936.344 298.516 936.344 293.818C936.344 289.21 934.04 286.492 930.134 286.492C926.174 286.492 923.834 289.21 923.834 293.818C923.834 298.516 926.174 301.288 930.134 301.288ZM930.134 298.57C927.992 298.57 926.714 296.77 926.714 293.728C926.714 290.884 927.992 289.21 930.134 289.21C932.222 289.21 933.446 290.884 933.446 293.728C933.446 296.77 932.222 298.57 930.134 298.57Z" fill="black"/>
<path d="M622 291V294V291ZM622 294V297V294ZM622 294H625H622ZM622 294H619H622ZM631 294C631 295.182 630.767 296.352 630.315 297.444C629.863 298.536 629.2 299.528 628.364 300.364C627.528 301.2 626.536 301.863 625.444 302.315C624.352 302.767 623.182 303 622 303C620.818 303 619.648 302.767 618.556 302.315C617.464 301.863 616.472 301.2 615.636 300.364C614.8 299.528 614.137 298.536 613.685 297.444C613.233 296.352 613 295.182 613 294C613 291.613 613.948 289.324 615.636 287.636C617.324 285.948 619.613 285 622 285C624.387 285 626.676 285.948 628.364 287.636C630.052 289.324 631 291.613 631 294Z" stroke="black" stroke-width="2" stroke-linecap="round" stroke-linejoin="round"/>
<rect x="595.5" y="343.5" width="359" height="63" rx="7.5" fill="#FDE68A" stroke="#D6D3D1"/>
<path d="M650.232 371H659.992V368.584H652.728V365.768H659.352V363.48H652.728V360.776H659.912V358.36H650.232V371ZM667.271 371.256C669.367 371.256 670.855 369.416 670.855 366.808C670.855 364.248 669.367 362.424 667.271 362.424C665.959 362.424 665.047 362.92 664.471 363.768V358.36H662.103V371H664.471V369.912C665.047 370.76 665.959 371.256 667.271 371.256ZM666.455 369.208C665.287 369.208 664.455 368.216 664.455 366.824C664.455 365.448 665.287 364.472 666.455 364.472C667.639 364.472 668.471 365.448 668.471 366.824C668.471 368.216 667.639 369.208 666.455 369.208ZM676.746 371.256C679.354 371.256 681.194 369.416 681.194 366.824C681.194 364.248 679.354 362.424 676.746 362.424C674.138 362.424 672.314 364.248 672.314 366.824C672.314 369.416 674.138 371.256 676.746 371.256ZM676.746 369.208C675.546 369.208 674.698 368.216 674.698 366.824C674.698 365.448 675.546 364.472 676.746 364.472C677.962 364.472 678.81 365.448 678.81 366.824C678.81 368.216 677.962 369.208 676.746 369.208ZM687.106 371.256C689.714 371.256 691.554 369.416 691.554 366.824C691.554 364.248 689.714 362.424 687.106 362.424C684.498 362.424 682.674 364.248 682.674 366.824C682.674 369.416 684.498 371.256 687.106 371.256ZM687.106 369.208C685.906 369.208 685.058 368.216 685.058 366.824C685.058 365.448 685.906 364.472 687.106 364.472C688.322 364.472 689.17 365.448 689.17 366.824C689.17 368.216 688.322 369.208 687.106 369.208ZM693.197 371H695.565V367.912L696.205 367.384L699.149 371H702.077L697.821 366.008L701.757 362.68H698.717L695.565 365.384V358.36H693.197V371Z" fill="black"/>
<path d="M650.232 391H651.688V386.464H655.09C657.512 386.464 658.772 385.176 658.772 383.16C658.772 381.144 657.512 379.94 655.09 379.94H650.232V391ZM651.688 385.064V381.326H654.768C656.448 381.326 657.246 382.026 657.246 383.202C657.246 384.364 656.476 385.064 654.838 385.064H651.688ZM660.65 391H665.06C668.462 391 670.716 388.9 670.716 385.456C670.716 381.97 668.518 379.94 665.06 379.94H660.65V391ZM662.106 389.67V381.27H665.06C667.65 381.27 669.19 382.824 669.19 385.442C669.19 388.102 667.65 389.67 665.06 389.67H662.106ZM672.709 391H674.165V386.002H680.381V384.644H674.165V381.27H680.871V379.94H672.709V391ZM680.72 392.442H681.672L683.016 389.39H681.462L680.72 392.442ZM689.142 391H697.374V389.614H690.598V386.044H696.814V384.686H690.598V381.326H697.304V379.94H689.142V391ZM699.642 391H701.098V386.464H704.5C706.922 386.464 708.182 385.176 708.182 383.16C708.182 381.144 706.922 379.94 704.5 379.94H699.642V391ZM701.098 385.064V381.326H704.178C705.858 381.326 706.656 382.026 706.656 383.202C706.656 384.364 705.886 385.064 704.248 385.064H701.098ZM714.652 391.182C717.606 391.21 719.342 389.418 719.342 386.366V379.94H717.886V386.352C717.886 388.522 716.682 389.796 714.652 389.796C712.622 389.796 711.432 388.522 711.432 386.352V379.94H709.962V386.366C709.962 389.362 711.712 391.154 714.652 391.182ZM728.373 385.288C729.297 384.952 729.899 384.056 729.899 382.852C729.899 381.088 728.611 379.94 726.497 379.94H721.709V391H726.861C728.919 391 730.361 389.768 730.361 388.004C730.361 386.618 729.661 385.568 728.373 385.288ZM723.165 381.326H726.035C727.575 381.326 728.401 381.956 728.401 383.062C728.401 384.196 727.589 384.77 726.105 384.77H723.165V381.326ZM726.441 389.614H723.165V386.058H726.497C728.009 386.058 728.835 386.618 728.835 387.71C728.835 388.928 727.995 389.614 726.441 389.614ZM731.689 392.442H732.641L733.985 389.39H732.431L731.689 392.442ZM740.111 391H741.567V387.78L743.667 385.792L747.965 391H749.939L744.731 384.784L749.855 379.94H747.797L741.567 385.862V379.94H740.111V391ZM751.963 382.614C752.509 382.614 752.971 382.18 752.971 381.606C752.971 381.046 752.537 380.598 751.963 380.598C751.389 380.598 750.941 381.046 750.941 381.606C750.941 382.18 751.389 382.614 751.963 382.614ZM751.263 391H752.677V383.72H751.263V391ZM754.735 391H756.163V387.402C756.163 385.848 757.017 384.714 758.305 384.714C759.369 384.714 759.957 385.484 759.957 386.702V391H761.399V386.66C761.399 384.574 760.489 383.496 758.725 383.496C757.521 383.496 756.681 384.084 756.163 384.966V383.72H754.735V391ZM766.331 391.224C767.395 391.238 768.235 390.72 768.739 389.866V391H770.167V379.94H768.739V384.854C768.235 384.014 767.395 383.496 766.331 383.496C764.427 383.496 763.083 385.092 763.083 387.332C763.083 389.614 764.427 391.224 766.331 391.224ZM766.639 390.006C765.379 390.006 764.497 388.9 764.497 387.346C764.497 385.806 765.379 384.714 766.639 384.714C767.899 384.714 768.795 385.806 768.795 387.346C768.795 388.9 767.899 390.006 766.639 390.006ZM772.235 391H773.663V379.94H772.235V391ZM779.151 391.224C780.873 391.224 782.133 390.174 782.357 388.886H780.929C780.789 389.474 780.131 390.048 779.151 390.048C777.807 390.048 777.023 389.138 776.925 387.808H782.427V387.248C782.427 384.826 780.929 383.496 779.151 383.496C776.995 383.496 775.455 385.092 775.455 387.346C775.455 389.614 776.995 391.224 779.151 391.224ZM776.925 386.744C777.107 385.526 777.863 384.714 779.109 384.714C780.187 384.714 780.943 385.554 780.999 386.744H776.925Z" fill="black"/>
<path d="M871.554 381.28C870.774 381.256 870.078 381.184 869.466 381.064C868.854 380.932 868.296 380.752 867.792 380.524V378.202C868.284 378.442 868.878 378.664 869.574 378.868C870.27 379.06 870.93 379.174 871.554 379.21V376.492C870.63 376.132 869.886 375.784 869.322 375.448C868.77 375.1 868.374 374.716 868.134 374.296C867.894 373.876 867.774 373.372 867.774 372.784C867.774 371.884 868.122 371.17 868.818 370.642C869.526 370.102 870.438 369.784 871.554 369.688V368.338H872.76V369.652C874.092 369.7 875.304 369.97 876.396 370.462L875.568 372.514C875.088 372.31 874.602 372.154 874.11 372.046C873.63 371.938 873.18 371.866 872.76 371.83V374.422C873.408 374.662 874.026 374.926 874.614 375.214C875.202 375.49 875.676 375.844 876.036 376.276C876.408 376.708 876.594 377.278 876.594 377.986C876.594 378.862 876.276 379.594 875.64 380.182C875.004 380.77 874.044 381.124 872.76 381.244V383.044H871.554V381.28ZM871.554 371.866C870.798 371.974 870.42 372.28 870.42 372.784C870.42 373.036 870.51 373.246 870.69 373.414C870.87 373.582 871.158 373.756 871.554 373.936V371.866ZM872.76 379.156C873.552 379.012 873.948 378.664 873.948 378.112C873.948 377.872 873.846 377.668 873.642 377.5C873.45 377.32 873.156 377.14 872.76 376.96V379.156ZM878.435 382H889.037V379.264H881.981C882.053 376.672 889.019 377.284 889.019 372.136C889.019 369.148 887.075 367.492 883.763 367.492C880.127 367.492 878.057 369.526 878.363 372.964H881.261C881.009 371.236 881.981 370.21 883.709 370.21C885.257 370.21 886.121 371.128 886.121 372.28C886.121 375.484 878.435 374.458 878.435 380.74V382ZM896.118 382.288C899.466 382.288 901.698 380.452 901.698 377.104C901.698 374.386 899.826 372.478 896.892 372.478C895.758 372.478 894.858 372.766 894.192 373.252L894.516 370.498H901.014V367.78H892.14L891.438 375.196L893.13 376.096C893.868 375.466 894.93 375.052 895.938 375.052C897.702 375.052 898.8 375.916 898.8 377.284C898.8 378.67 897.774 379.57 896.1 379.57C894.714 379.57 893.742 378.778 893.58 377.554H890.682C890.808 380.47 892.95 382.288 896.118 382.288ZM905.207 382.252C906.179 382.252 906.899 381.55 906.899 380.578C906.899 379.606 906.179 378.904 905.207 378.904C904.217 378.904 903.479 379.606 903.479 380.578C903.479 381.55 904.217 382.252 905.207 382.252ZM915.034 382.288C918.94 382.288 921.244 379.516 921.244 374.818C921.244 370.21 918.94 367.492 915.034 367.492C911.074 367.492 908.734 370.21 908.734 374.818C908.734 379.516 911.074 382.288 915.034 382.288ZM915.034 379.57C912.892 379.57 911.614 377.77 911.614 374.728C911.614 371.884 912.892 370.21 915.034 370.21C917.122 370.21 918.346 371.884 918.346 374.728C918.346 377.77 917.122 379.57 915.034 379.57ZM929.378 382.288C933.284 382.288 935.588 379.516 935.588 374.818C935.588 370.21 933.284 367.492 929.378 367.492C925.418 367.492 923.078 370.21 923.078 374.818C923.078 379.516 925.418 382.288 929.378 382.288ZM929.378 379.57C927.236 379.57 925.958 377.77 925.958 374.728C925.958 371.884 927.236 370.21 929.378 370.21C931.466 370.21 932.69 371.884 932.69 374.728C932.69 377.77 931.466 379.57 929.378 379.57Z" fill="black"/>
<path d="M622 372V375V372ZM622 375V378V375ZM622 375H625H622ZM622 375H619H622ZM631 375C631 376.182 630.767 377.352 630.315 378.444C629.863 379.536 629.2 380.528 628.364 381.364C627.528 382.2 626.536 382.863 625.444 383.315C624.352 383.767 623.182 384 622 384C620.818 384 619.648 383.767 618.556 383.315C617.464 382.863 616.472 382.2 615.636 381.364C614.8 380.528 614.137 379.536 613.685 378.444C613.233 377.352 613 376.182 613 375C613 372.613 613.948 370.324 615.636 368.636C617.324 366.948 619.613 366 622 366C624.387 366 626.676 366.948 628.364 368.636C630.052 370.324 631 372.613 631 375Z" stroke="black" stroke-width="2" stroke-linecap="round" stroke-linejoin="round"/>
<rect x="595.5" y="424.5" width="359" height="63" rx="7.5" fill="white" stroke="#D6D3D1"/>
<path d="M649.256 452H651.944L653.064 449.36H659.272L660.392 452H663.08L657.56 439.36H654.776L649.256 452ZM654.088 446.944L656.184 442.112L658.248 446.944H654.088ZM672.263 443.68H669.895V447.936C669.895 449.312 669.175 450.208 668.023 450.208C666.999 450.208 666.391 449.472 666.391 448.256V443.68H663.991V448.384C663.991 450.928 664.999 452.256 667.079 452.256C668.407 452.256 669.335 451.696 669.895 450.8V452H672.263V443.68ZM677.617 452.256C678.929 452.256 679.841 451.76 680.417 450.912V452H682.801V439.36H680.417V444.768C679.841 443.92 678.929 443.424 677.617 443.424C675.521 443.424 674.049 445.248 674.049 447.808C674.049 450.416 675.521 452.256 677.617 452.256ZM678.433 450.208C677.249 450.208 676.417 449.216 676.417 447.824C676.417 446.448 677.249 445.472 678.433 445.472C679.601 445.472 680.433 446.448 680.433 447.824C680.433 449.216 679.601 450.208 678.433 450.208ZM686.099 442.656C686.963 442.656 687.603 442.016 687.603 441.152C687.603 440.288 686.963 439.68 686.099 439.68C685.219 439.68 684.579 440.288 684.579 441.152C684.579 442.016 685.219 442.656 686.099 442.656ZM684.899 452H687.283V443.68H684.899V452ZM693.496 452.256C696.104 452.256 697.944 450.416 697.944 447.824C697.944 445.248 696.104 443.424 693.496 443.424C690.888 443.424 689.064 445.248 689.064 447.824C689.064 450.416 690.888 452.256 693.496 452.256ZM693.496 450.208C692.296 450.208 691.448 449.216 691.448 447.824C691.448 446.448 692.296 445.472 693.496 445.472C694.712 445.472 695.56 446.448 695.56 447.824C695.56 449.216 694.712 450.208 693.496 450.208ZM704.755 452.256C706.851 452.256 708.339 450.416 708.339 447.808C708.339 445.248 706.851 443.424 704.755 443.424C703.443 443.424 702.531 443.92 701.955 444.768V439.36H699.587V452H701.955V450.912C702.531 451.76 703.443 452.256 704.755 452.256ZM703.939 450.208C702.771 450.208 701.939 449.216 701.939 447.824C701.939 446.448 702.771 445.472 703.939 445.472C705.123 445.472 705.955 446.448 705.955 447.824C705.955 449.216 705.123 450.208 703.939 450.208ZM714.231 452.256C716.839 452.256 718.679 450.416 718.679 447.824C718.679 445.248 716.839 443.424 714.231 443.424C711.623 443.424 709.799 445.248 709.799 447.824C709.799 450.416 711.623 452.256 714.231 452.256ZM714.231 450.208C713.031 450.208 712.183 449.216 712.183 447.824C712.183 446.448 713.031 445.472 714.231 445.472C715.447 445.472 716.295 446.448 716.295 447.824C716.295 449.216 715.447 450.208 714.231 450.208ZM724.59 452.256C727.198 452.256 729.038 450.416 729.038 447.824C729.038 445.248 727.198 443.424 724.59 443.424C721.982 443.424 720.158 445.248 720.158 447.824C720.158 450.416 721.982 452.256 724.59 452.256ZM724.59 450.208C723.39 450.208 722.542 449.216 722.542 447.824C722.542 446.448 723.39 445.472 724.59 445.472C725.806 445.472 726.654 446.448 726.654 447.824C726.654 449.216 725.806 450.208 724.59 450.208ZM730.681 452H733.049V448.912L733.689 448.384L736.633 452H739.561L735.305 447.008L739.241 443.68H736.201L733.049 446.384V439.36H730.681V452Z" fill="black"/>
<path d="M650.232 472H654.642C658.044 472 660.298 469.9 660.298 466.456C660.298 462.97 658.1 460.94 654.642 460.94H650.232V472ZM651.688 470.67V462.27H654.642C657.232 462.27 658.772 463.824 658.772 466.442C658.772 469.102 657.232 470.67 654.642 470.67H651.688ZM662.795 463.614C663.341 463.614 663.803 463.18 663.803 462.606C663.803 462.046 663.369 461.598 662.795 461.598C662.221 461.598 661.773 462.046 661.773 462.606C661.773 463.18 662.221 463.614 662.795 463.614ZM662.095 472H663.509V464.72H662.095V472ZM668.983 472.224C670.705 472.224 671.979 471.104 672.203 469.606H670.789C670.649 470.404 669.949 471.006 668.941 471.006C667.653 471.006 666.729 469.914 666.729 468.346C666.729 466.792 667.653 465.714 668.941 465.714C669.921 465.714 670.635 466.33 670.789 467.142H672.203C671.979 465.63 670.691 464.496 668.983 464.496C666.813 464.496 665.287 466.092 665.287 468.346C665.287 470.614 666.813 472.224 668.983 472.224ZM677.873 471.986V470.74C676.207 470.866 676.151 470.712 676.151 469.508V465.98H678.237V464.72H676.151V462.76H674.723V464.72H673.169V465.98H674.723V470.04C674.681 472.098 675.787 472.182 677.873 471.986ZM681.824 472.224C683.14 472.224 684.036 471.636 684.442 470.628C684.526 471.776 685.114 472.322 686.444 471.944L686.472 470.936C685.898 470.992 685.786 470.782 685.786 470.18V467.142C685.786 465.476 684.722 464.496 682.72 464.496C680.746 464.496 679.612 465.49 679.612 467.184H680.956C680.956 466.274 681.586 465.714 682.692 465.714C683.854 465.714 684.372 466.246 684.358 467.142V467.562L682.608 467.758C680.466 467.996 679.36 468.78 679.36 470.068C679.36 471.174 680.158 472.224 681.824 472.224ZM682.132 471.104C681.124 471.104 680.774 470.544 680.774 470.04C680.774 469.354 681.53 468.99 683.014 468.822L684.33 468.682C684.288 470.04 683.35 471.104 682.132 471.104ZM691.682 471.986V470.74C690.016 470.866 689.96 470.712 689.96 469.508V465.98H692.046V464.72H689.96V462.76H688.532V464.72H686.978V465.98H688.532V470.04C688.49 472.098 689.596 472.182 691.682 471.986ZM696.929 472.224C698.651 472.224 699.911 471.174 700.135 469.886H698.707C698.567 470.474 697.909 471.048 696.929 471.048C695.585 471.048 694.801 470.138 694.703 468.808H700.205V468.248C700.205 465.826 698.707 464.496 696.929 464.496C694.773 464.496 693.233 466.092 693.233 468.346C693.233 470.614 694.773 472.224 696.929 472.224ZM694.703 467.744C694.885 466.526 695.641 465.714 696.887 465.714C697.965 465.714 698.721 466.554 698.777 467.744H694.703ZM704.998 472.224C706.062 472.238 706.902 471.72 707.406 470.866V472H708.834V460.94H707.406V465.854C706.902 465.014 706.062 464.496 704.998 464.496C703.094 464.496 701.75 466.092 701.75 468.332C701.75 470.614 703.094 472.224 704.998 472.224ZM705.306 471.006C704.046 471.006 703.164 469.9 703.164 468.346C703.164 466.806 704.046 465.714 705.306 465.714C706.566 465.714 707.462 466.806 707.462 468.346C707.462 469.9 706.566 471.006 705.306 471.006ZM718.936 472.224C720.84 472.224 722.184 470.614 722.184 468.332C722.184 466.092 720.84 464.496 718.936 464.496C717.872 464.496 717.032 465.014 716.528 465.854V460.94H715.1V472H716.528V470.866C717.032 471.72 717.872 472.238 718.936 472.224ZM718.628 471.006C717.368 471.006 716.472 469.9 716.472 468.346C716.472 466.806 717.368 465.714 718.628 465.714C719.888 465.714 720.77 466.806 720.77 468.346C720.77 469.9 719.888 471.006 718.628 471.006ZM723.207 474.8H723.907C725.699 474.8 726.819 474.268 727.505 472.546L730.487 464.72H728.975L726.875 470.46L724.173 464.72H722.647L726.133 472.21C725.587 473.218 725.111 473.568 724.089 473.568H723.207V474.8ZM736.351 472H737.807V462.858L741.741 472H743.281L747.215 462.858V472H748.685V460.94H746.361L742.511 470.236L738.675 460.94H736.351V472ZM753.314 472.224C754.63 472.224 755.526 471.636 755.932 470.628C756.016 471.776 756.604 472.322 757.934 471.944L757.962 470.936C757.388 470.992 757.276 470.782 757.276 470.18V467.142C757.276 465.476 756.212 464.496 754.21 464.496C752.236 464.496 751.102 465.49 751.102 467.184H752.446C752.446 466.274 753.076 465.714 754.182 465.714C755.344 465.714 755.862 466.246 755.848 467.142V467.562L754.098 467.758C751.956 467.996 750.85 468.78 750.85 470.068C750.85 471.174 751.648 472.224 753.314 472.224ZM753.622 471.104C752.614 471.104 752.264 470.544 752.264 470.04C752.264 469.354 753.02 468.99 754.504 468.822L755.82 468.682C755.778 470.04 754.84 471.104 753.622 471.104ZM759.384 472H760.742V467.898C760.742 466.582 761.932 465.966 763.654 465.966V464.636C762.212 464.636 761.218 465.126 760.742 466.106V464.72H759.384V472ZM764.948 472H766.376V469.144L767.286 468.388L770.24 472H771.976L768.266 467.562L771.696 464.72H769.82L766.376 467.632V460.94H764.948V472Z" fill="black"/>
<path d="M871.554 462.28C870.774 462.256 870.078 462.184 869.466 462.064C868.854 461.932 868.296 461.752 867.792 461.524V459.202C868.284 459.442 868.878 459.664 869.574 459.868C870.27 460.06 870.93 460.174 871.554 460.21V457.492C870.63 457.132 869.886 456.784 869.322 456.448C868.77 456.1 868.374 455.716 868.134 455.296C867.894 454.876 867.774 454.372 867.774 453.784C867.774 452.884 868.122 452.17 868.818 451.642C869.526 451.102 870.438 450.784 871.554 450.688V449.338H872.76V450.652C874.092 450.7 875.304 450.97 876.396 451.462L875.568 453.514C875.088 453.31 874.602 453.154 874.11 453.046C873.63 452.938 873.18 452.866 872.76 452.83V455.422C873.408 455.662 874.026 455.926 874.614 456.214C875.202 456.49 875.676 456.844 876.036 457.276C876.408 457.708 876.594 458.278 876.594 458.986C876.594 459.862 876.276 460.594 875.64 461.182C875.004 461.77 874.044 462.124 872.76 462.244V464.044H871.554V462.28ZM871.554 452.866C870.798 452.974 870.42 453.28 870.42 453.784C870.42 454.036 870.51 454.246 870.69 454.414C870.87 454.582 871.158 454.756 871.554 454.936V452.866ZM872.76 460.156C873.552 460.012 873.948 459.664 873.948 459.112C873.948 458.872 873.846 458.668 873.642 458.5C873.45 458.32 873.156 458.14 872.76 457.96V460.156ZM883.583 463.288C886.823 463.288 889.073 461.38 889.073 458.662C889.073 455.872 887.057 454.594 884.879 454.432L888.929 450.58V448.78H878.525V451.498H884.375L880.973 455.08L882.413 456.646C882.773 456.502 883.259 456.43 883.691 456.43C885.293 456.43 886.265 457.222 886.265 458.464C886.265 459.76 885.239 460.57 883.565 460.57C881.945 460.57 880.919 459.688 880.865 458.266H878.003C878.003 461.2 880.289 463.288 883.583 463.288ZM896.153 463.288C899.501 463.288 901.733 461.452 901.733 458.104C901.733 455.386 899.861 453.478 896.927 453.478C895.793 453.478 894.893 453.766 894.227 454.252L894.551 451.498H901.049V448.78H892.175L891.473 456.196L893.165 457.096C893.903 456.466 894.965 456.052 895.973 456.052C897.737 456.052 898.835 456.916 898.835 458.284C898.835 459.67 897.809 460.57 896.135 460.57C894.749 460.57 893.777 459.778 893.615 458.554H890.717C890.843 461.47 892.985 463.288 896.153 463.288ZM905.242 463.252C906.214 463.252 906.934 462.55 906.934 461.578C906.934 460.606 906.214 459.904 905.242 459.904C904.252 459.904 903.514 460.606 903.514 461.578C903.514 462.55 904.252 463.252 905.242 463.252ZM915.07 463.288C918.976 463.288 921.28 460.516 921.28 455.818C921.28 451.21 918.976 448.492 915.07 448.492C911.11 448.492 908.77 451.21 908.77 455.818C908.77 460.516 911.11 463.288 915.07 463.288ZM915.07 460.57C912.928 460.57 911.65 458.77 911.65 455.728C911.65 452.884 912.928 451.21 915.07 451.21C917.158 451.21 918.382 452.884 918.382 455.728C918.382 458.77 917.158 460.57 915.07 460.57ZM929.413 463.288C933.319 463.288 935.623 460.516 935.623 455.818C935.623 451.21 933.319 448.492 929.413 448.492C925.453 448.492 923.113 451.21 923.113 455.818C923.113 460.516 925.453 463.288 929.413 463.288ZM929.413 460.57C927.271 460.57 925.993 458.77 925.993 455.728C925.993 452.884 927.271 451.21 929.413 451.21C931.501 451.21 932.725 452.884 932.725 455.728C932.725 458.77 931.501 460.57 929.413 460.57Z" fill="black"/>
<path d="M622 453V456V453ZM622 456V459V456ZM622 456H625H622ZM622 456H619H622ZM631 456C631 457.182 630.767 458.352 630.315 459.444C629.863 460.536 629.2 461.528 628.364 462.364C627.528 463.2 626.536 463.863 625.444 464.315C624.352 464.767 623.182 465 622 465C620.818 465 619.648 464.767 618.556 464.315C617.464 463.863 616.472 463.2 615.636 462.364C614.8 461.528 614.137 460.536 613.685 459.444C613.233 458.352 613 457.182 613 456C613 453.613 613.948 451.324 615.636 449.636C617.324 447.948 619.613 447 622 447C624.387 447 626.676 447.948 628.364 449.636C630.052 451.324 631 453.613 631 456Z" stroke="black" stroke-width="2" stroke-linecap="round" stroke-linejoin="round"/>
<rect x="595.5" y="513.5" width="359" height="63" rx="7.5" fill="#1E293B" stroke="#D6D3D1"/>
<path d="M827.554 551.28C826.774 551.256 826.078 551.184 825.466 551.064C824.854 550.932 824.296 550.752 823.792 550.524V548.202C824.284 548.442 824.878 548.664 825.574 548.868C826.27 549.06 826.93 549.174 827.554 549.21V546.492C826.63 546.132 825.886 545.784 825.322 545.448C824.77 545.1 824.374 544.716 824.134 544.296C823.894 543.876 823.774 543.372 823.774 542.784C823.774 541.884 824.122 541.17 824.818 540.642C825.526 540.102 826.438 539.784 827.554 539.688V538.338H828.76V539.652C830.092 539.7 831.304 539.97 832.396 540.462L831.568 542.514C831.088 542.31 830.602 542.154 830.11 542.046C829.63 541.938 829.18 541.866 828.76 541.83V544.422C829.408 544.662 830.026 544.926 830.614 545.214C831.202 545.49 831.676 545.844 832.036 546.276C832.408 546.708 832.594 547.278 832.594 547.986C832.594 548.862 832.276 549.594 831.64 550.182C831.004 550.77 830.044 551.124 828.76 551.244V553.044H827.554V551.28ZM827.554 541.866C826.798 541.974 826.42 542.28 826.42 542.784C826.42 543.036 826.51 543.246 826.69 543.414C826.87 543.582 827.158 543.756 827.554 543.936V541.866ZM828.76 549.156C829.552 549.012 829.948 548.664 829.948 548.112C829.948 547.872 829.846 547.668 829.642 547.5C829.45 547.32 829.156 547.14 828.76 546.96V549.156ZM841.401 552H844.065V548.508H845.973V545.79H844.065V537.78H840.267L833.949 545.988V548.508H841.401V552ZM837.585 545.79L841.401 540.696V545.79H837.585ZM852.874 552.288C856.222 552.288 858.454 550.452 858.454 547.104C858.454 544.386 856.582 542.478 853.648 542.478C852.514 542.478 851.614 542.766 850.948 543.252L851.272 540.498H857.77V537.78H848.896L848.194 545.196L849.886 546.096C850.624 545.466 851.686 545.052 852.694 545.052C854.458 545.052 855.556 545.916 855.556 547.284C855.556 548.67 854.53 549.57 852.856 549.57C851.47 549.57 850.498 548.778 850.336 547.554H847.438C847.564 550.47 849.706 552.288 852.874 552.288ZM861.962 552.252C862.934 552.252 863.654 551.55 863.654 550.578C863.654 549.606 862.934 548.904 861.962 548.904C860.972 548.904 860.234 549.606 860.234 550.578C860.234 551.55 860.972 552.252 861.962 552.252ZM871.79 552.288C875.696 552.288 878 549.516 878 544.818C878 540.21 875.696 537.492 871.79 537.492C867.83 537.492 865.49 540.21 865.49 544.818C865.49 549.516 867.83 552.288 871.79 552.288ZM871.79 549.57C869.648 549.57 868.37 547.77 868.37 544.728C868.37 541.884 869.648 540.21 871.79 540.21C873.878 540.21 875.102 541.884 875.102 544.728C875.102 547.77 873.878 549.57 871.79 549.57ZM886.134 552.288C890.04 552.288 892.344 549.516 892.344 544.818C892.344 540.21 890.04 537.492 886.134 537.492C882.174 537.492 879.834 540.21 879.834 544.818C879.834 549.516 882.174 552.288 886.134 552.288ZM886.134 549.57C883.992 549.57 882.714 547.77 882.714 544.728C882.714 541.884 883.992 540.21 886.134 540.21C888.222 540.21 889.446 541.884 889.446 544.728C889.446 547.77 888.222 549.57 886.134 549.57Z" fill="white"/>
<path d="M632.278 544.638C633.538 544.188 634.312 543.054 634.312 541.524C634.312 539.256 632.656 537.78 629.938 537.78H623.386V552H630.406C633.052 552 634.906 550.344 634.906 548.076C634.906 546.366 634.006 545.016 632.278 544.638ZM626.194 540.498H628.93C630.64 540.498 631.45 541.02 631.45 542.118C631.45 543.144 630.676 543.63 629.02 543.63H626.194V540.498ZM629.452 549.282H626.194V546.06H629.524C631.216 546.06 632.008 546.546 632.008 547.608C632.008 548.724 631.198 549.282 629.452 549.282ZM646.378 542.64H643.714V547.428C643.714 548.976 642.904 549.984 641.608 549.984C640.456 549.984 639.772 549.156 639.772 547.788V542.64H637.072V547.932C637.072 550.794 638.206 552.288 640.546 552.288C642.04 552.288 643.084 551.658 643.714 550.65V552H646.378V542.64ZM648.945 555.6H650.097C652.401 555.6 653.985 554.97 654.939 552.684L658.755 542.64H655.965L653.625 548.886L650.817 542.64H648.009L652.239 552.144C651.645 552.99 651.033 553.26 649.863 553.242H648.945V555.6ZM665.872 552H668.68V542.244L675.952 552H678.904V537.78H676.114V547.554L668.86 537.78H665.872V552ZM686.121 552.288C689.055 552.288 691.125 550.218 691.125 547.302C691.125 544.404 689.055 542.352 686.121 542.352C683.187 542.352 681.135 544.404 681.135 547.302C681.135 550.218 683.187 552.288 686.121 552.288ZM686.121 549.984C684.771 549.984 683.817 548.868 683.817 547.302C683.817 545.754 684.771 544.656 686.121 544.656C687.489 544.656 688.443 545.754 688.443 547.302C688.443 548.868 687.489 549.984 686.121 549.984ZM695.121 552H697.947L699.963 546.384L701.961 552H704.787L707.991 542.64H705.201L703.347 548.472L701.331 542.64H698.577L696.579 548.472L694.725 542.64H691.917L695.121 552Z" fill="white"/>
<rect x="903" y="525" width="39" height="39" rx="4" fill="#FDE68A"/>
<path d="M924 542L927 545L924 542ZM927 545L924 548L927 545ZM927 545H919H927ZM932 545C932 546.182 931.767 547.352 931.315 548.444C930.863 549.536 930.2 550.528 929.364 551.364C928.528 552.2 927.536 552.863 926.444 553.315C925.352 553.767 924.182 554 923 554C921.818 554 920.648 553.767 919.556 553.315C918.464 552.863 917.472 552.2 916.636 551.364C915.8 550.528 915.137 549.536 914.685 548.444C914.233 547.352 914 546.182 914 545C914 542.613 914.948 540.324 916.636 538.636C918.324 536.948 920.613 536 923 536C925.387 536 927.676 536.948 929.364 538.636C931.052 540.324 932 542.613 932 545Z" stroke="black" stroke-width="2" stroke-linecap="round" stroke-linejoin="round"/>
</g>
<defs>
<clipPath id="clip0">
<rect width="630" height="1194" fill="white" transform="translate(1194) rotate(90)"/>
</clipPath>
</defs>
</svg>
